# xmcd
#
# Track frame offsets: 
#        187
#        11292
#        26557
#        40940
#        54200
#        67012
#        78770
#        97422
#        112140
#        127507
#
# Disc length: 1952 seconds
#
# Revision: 0
# Processed by: cddbd v1.5.2PL0 Copyright (c) Steve Scherf et al.
# Submitted via: ExactAudioCopyFreeDBPlugin 1.0
#
DISCID=76079e0a
DTITLE=Various Artist - Country's Greatest Legends
DYEAR=1995
DGENRE=Country
TTITLE0=Conway Twitty - Hello Darlin'
TTITLE1=John Conlee - Rose Colored Glasses
TTITLE2=Don Williams - Tulsa Time
TTITLE3=Merle Haggard - The Way I Am
TTITLE4=Conway Twitty -  Tight Fittin' Jeans 
TTITLE5=John Conlee - Backside of Thirty
TTITLE6=Don Williams - I Believe in You 
TTITLE7=Merle Haggard - If We're Not Back in Love by Monday
TTITLE8=John Conlee - As Long as I'm Rockin' With You
TTITLE9=Don Williams - Good Ole Boys Like Me
EXTD=
EXTT0=
EXTT1=
EXTT2=
EXTT3=
EXTT4=
EXTT5=
EXTT6=
EXTT7=
EXTT8=
EXTT9=
PLAYORDER=
